# xmcd
#
# Track frame offsets:
#	150
#	12380
#	22360
#	31667
#	42227
#	55939
#	66397
#	78290
#	88940
#	101357
#	113030
#	123557
#
# Disc length: 1776 seconds
#
# Revision: 1
# Processed by: cddbd v1.5.2PL0 Copyright (c) Steve Scherf et al.
# Submitted via: audiograbber 1.83.01
#
DISCID=9c06ee0c
DTITLE=Ultimate Country Classics - Volume 2 - Disc 1
DYEAR=2002
DGENRE=Country
TTITLE0=Bobby Bare - 500 Miles Away From Home
TTITLE1=George Hamilton IV - Abilene
TTITLE2=Dottie West - Country Sunshine
TTITLE3=Don Gibson - Lonesome Number One
TTITLE4=Jim Ed Brown and Helen Cornelius - I Don't Want To Have To Marry You
TTITLE5=Jim Reeves - He'll Have To Go
TTITLE6=Skeeter Davis - The End of The World
TTITLE7=Hank Locklin - Please Help Me, I'm Falling
TTITLE8=Hank Snow - I've Been Everywhere
TTITLE9=Porter Wagoner - Misery Loves Company
TTITLE10=Floyd Cramer - San Antonio Rose
TTITLE11=Eddy Arnold - What's He Doin' In My World
EXTD=YEAR: 2002
EXTT0=
EXTT1=
EXTT2=
EXTT3=
EXTT4=
EXTT5=
EXTT6=
EXTT7=
EXTT8=
EXTT9=
EXTT10=
EXTT11=
PLAYORDER=
